<svg width="16" height="16" viewBox="0 0 16 16" fill="none" xmlns="http://www.w3.org/2000/svg">
<path d="M15.3516 2.99995C15.3461 2.90842 15.3073 2.82207 15.2425 2.75724C15.1776 2.6924 15.0913 2.65356 14.9997 2.64807C11.8122 2.46057 9.25725 3.42432 8.16537 5.22682C7.4385 6.42745 7.45412 7.89432 8.1985 9.28932C7.72118 9.83568 7.38854 10.493 7.231 11.2012L5.9935 9.96307C6.50287 8.95682 6.49975 7.9037 5.9735 7.03495C5.17287 5.71307 3.31225 5.00432 0.993499 5.14182C0.901869 5.14733 0.81544 5.18625 0.750588 5.25122C0.685736 5.31619 0.646967 5.40268 0.641624 5.49432C0.505374 7.81245 1.21287 9.67307 2.53475 10.4737C2.96527 10.7368 3.46019 10.8757 3.96475 10.8749C4.48727 10.8696 5.00116 10.7411 5.46475 10.4999L7.12475 12.1549V13.9999C7.12475 14.0994 7.16426 14.1948 7.23458 14.2651C7.30491 14.3354 7.40029 14.3749 7.49975 14.3749C7.59921 14.3749 7.69459 14.3354 7.76491 14.2651C7.83524 14.1948 7.87475 14.0994 7.87475 13.9999V12.1568C7.87225 11.2977 8.17731 10.4661 8.73475 9.81245C9.43537 10.1831 10.1547 10.3693 10.8485 10.3693C11.5271 10.3716 12.193 10.1862 12.7729 9.8337C14.5754 8.74307 15.5391 6.18745 15.3516 2.99995ZM2.9235 9.83182C1.90412 9.21495 1.33662 7.74995 1.37475 5.87495C3.24975 5.83432 4.71287 6.40245 5.32975 7.42182C5.68475 8.00745 5.71475 8.69557 5.426 9.3962L3.76475 7.73432C3.69438 7.66396 3.59895 7.62443 3.49944 7.62443C3.39993 7.62443 3.30449 7.66396 3.23412 7.73432C3.16376 7.80469 3.12423 7.90013 3.12423 7.99964C3.12423 8.09915 3.16376 8.19458 3.23412 8.26495L4.89787 9.92807C4.19725 10.2168 3.50912 10.1874 2.9235 9.83182ZM12.3847 9.19307C11.4635 9.75057 10.376 9.76682 9.28037 9.24932L12.7654 5.76495C12.8002 5.73011 12.8279 5.68875 12.8467 5.64322C12.8656 5.5977 12.8753 5.54891 12.8753 5.49964C12.8753 5.45036 12.8656 5.40157 12.8467 5.35605C12.8279 5.31053 12.8002 5.26917 12.7654 5.23432C12.7305 5.19948 12.6892 5.17185 12.6436 5.15299C12.5981 5.13413 12.5493 5.12443 12.5001 5.12443C12.4508 5.12443 12.402 5.13413 12.3565 5.15299C12.311 5.17185 12.2696 5.19948 12.2347 5.23432L8.74975 8.71932C8.23225 7.6237 8.24975 6.5362 8.806 5.61557C9.7135 4.11557 11.8722 3.29182 14.6185 3.3812C14.7079 6.12495 13.8835 8.28495 12.3847 9.19307Z" fill="#4B5563"/>
</svg>
