<svg width="16" height="16" viewBox="0 0 16 16" fill="none" xmlns="http://www.w3.org/2000/svg">
<g clip-path="url(#clip0_1122_388)">
<path fill-rule="evenodd" clip-rule="evenodd" d="M8.00065 1.83333C4.59489 1.83333 1.83398 4.59424 1.83398 7.99999C1.83398 11.4058 4.59489 14.1667 8.00065 14.1667C11.4064 14.1667 14.1673 11.4058 14.1673 7.99999C14.1673 4.59424 11.4064 1.83333 8.00065 1.83333ZM0.833984 7.99999C0.833984 4.04195 4.04261 0.833328 8.00065 0.833328C11.9587 0.833328 15.1673 4.04195 15.1673 7.99999C15.1673 11.958 11.9587 15.1667 8.00065 15.1667C4.04261 15.1667 0.833984 11.958 0.833984 7.99999ZM8.00065 4.83333C8.27679 4.83333 8.50065 5.05719 8.50065 5.33333V7.79289L10.0209 9.31311C10.2161 9.50837 10.2161 9.82495 10.0209 10.0202C9.82561 10.2155 9.50903 10.2155 9.31376 10.0202L7.6471 8.35355C7.55333 8.25978 7.50065 8.1326 7.50065 7.99999V5.33333C7.50065 5.05719 7.72451 4.83333 8.00065 4.83333Z" fill="#4B5563"/>
</g>
<defs>
<clipPath id="clip0_1122_388">
<rect width="16" height="16" fill="white"/>
</clipPath>
</defs>
</svg>
